<?xml version="1.0" encoding="UTF-8" standalone="no"?>
<!-- Created with Inkscape (http://www.inkscape.org/) -->

<svg
   width="210mm"
   height="297mm"
   viewBox="0 0 210 297"
   version="1.1"
   id="svg1"
   inkscape:version="1.4.2 (ebf0e940d0, 2025-05-08)"
   sodipodi:docname="lowe.svg"
   xmlns:inkscape="http://www.inkscape.org/namespaces/inkscape"
   xmlns:sodipodi="http://sodipodi.sourceforge.net/DTD/sodipodi-0.dtd"
   xmlns="http://www.w3.org/2000/svg"
   xmlns:svg="http://www.w3.org/2000/svg">
  <sodipodi:namedview
     id="namedview1"
     pagecolor="#505050"
     bordercolor="#eeeeee"
     borderopacity="1"
     inkscape:showpageshadow="0"
     inkscape:pageopacity="0"
     inkscape:pagecheckerboard="0"
     inkscape:deskcolor="#505050"
     inkscape:document-units="mm"
     inkscape:zoom="0.88020764"
     inkscape:rotation="90"
     inkscape:cx="434.55655"
     inkscape:cy="638.48571"
     inkscape:window-width="1908"
     inkscape:window-height="1038"
     inkscape:window-x="0"
     inkscape:window-y="0"
     inkscape:window-maximized="1"
     inkscape:current-layer="layer1" />
  <defs
     id="defs1" />
  <g
     inkscape:label="Layer 1"
     inkscape:groupmode="layer"
     id="layer1">
    <rect
       style="fill:#00e9cc;stroke-width:0.264583;fill-opacity:1"
       id="rect1"
       width="218.92712"
       height="306.07288"
       x="-5.5263157"
       y="-6.3765187" />
    <path
       style="fill:#00e9cc;fill-opacity:1;stroke-width:0.264583"
       id="path1"
       d="m 26.533295,283.73019 c 0.721214,-1.53275 1.213371,-3.15132 1.78853,-4.74048 0.474922,-1.22775 1.000115,-2.42906 1.833057,-3.45694 0.752711,-0.77251 1.72049,-1.08895 2.753162,-1.27728 1.574945,-0.26495 3.183612,-0.0878 4.765595,-0.20963 0.456409,-0.0351 0.907553,-0.12052 1.361332,-0.18076 2.584963,-0.5221 5.136711,-1.18248 7.737446,-1.62777 1.326401,-0.22958 2.671445,-0.28512 4.014462,-0.30337 1.136843,-0.003 2.273678,0.004 3.410524,0.005 2.360157,-0.0502 4.715954,-0.0138 7.072823,0.11041 2.697226,0.12369 5.390742,0.26712 8.079171,0.52157 4.231206,0.84249 8.500935,1.43116 12.732416,2.27098 3.814324,0.62835 7.654555,1.11315 11.502189,1.48687 2.850473,0.2548 5.714863,0.25199 8.574118,0.2653 3.14668,0.0209 6.29101,0.0476 9.42621,-0.25016 3.368,-0.57878 6.24326,-2.45375 9.06284,-4.27397 3.88489,-2.40885 7.61826,-5.09651 10.90062,-8.29226 0.57703,-0.56181 1.10506,-1.17183 1.65759,-1.75775 1.70327,-1.88062 3.30248,-3.89924 4.26989,-6.26695 0.44468,-1.08834 0.51332,-1.51536 0.79356,-2.62559 0.31507,-2.16518 -0.0707,-3.48675 -1.28371,-5.2468 -0.70159,-1.05819 -1.6831,-1.86535 -2.64106,-2.67823 0,0 -3.63678,-1.47034 -3.63678,-1.47034 v 0 c 0.95454,0.79956 1.97465,1.56085 2.69105,2.59437 1.28432,1.7109 1.68361,2.77298 1.47727,4.96916 -0.25138,1.08261 -0.31309,1.51589 -0.72827,2.57785 -0.916,2.34293 -2.46435,4.34956 -4.12974,6.20739 -0.54062,0.58139 -1.05719,1.18609 -1.62184,1.74416 -3.24959,3.2117 -6.98779,5.87777 -10.90031,8.21595 -2.82594,1.74522 -5.69722,3.57121 -9.04617,4.06918 -3.12119,0.28139 -6.25125,0.28015 -9.383114,0.23453 -2.857053,-0.0233 -5.718027,-0.0464 -8.565925,-0.30191 -3.806963,-0.36436 -7.613923,-0.7887 -11.382796,-1.44399 -4.270616,-0.83622 -8.57132,-1.49022 -12.845439,-2.30828 -2.696223,-0.25482 -5.397529,-0.40077 -8.102898,-0.51885 -2.382468,-0.12216 -4.763905,-0.13692 -7.149209,-0.14288 -1.140698,-0.007 -2.281531,-0.0185 -3.422197,-0.003 -1.344375,0.0311 -2.688879,0.12618 -4.011367,0.38285 -2.574848,0.49321 -5.107262,1.17756 -7.689545,1.63155 -2.067727,0.20728 -4.150702,0.0815 -6.212409,0.36941 -1.107149,0.24215 -2.131171,0.6413 -2.911131,1.5021 -0.846806,1.07214 -1.377657,2.31751 -1.863655,3.58727 -0.57224,1.57975 -1.032907,3.20297 -1.826042,4.69371 z" />
    <path
       style="fill:#000000;fill-opacity:1;stroke-width:0.264583"
       id="path3"
       d="m 21.302857,269.83589 c 2.132953,1.22193 6.144253,3.8952 9.317634,5.20184 2.225627,0.91639 4.543263,1.62386 6.844202,2.32087 4.86306,1.71559 9.795568,3.19495 14.764284,4.56719 4.069474,0.91138 8.103772,2.00694 12.212666,2.7301 3.123891,0.52792 6.226617,1.1716 9.348621,1.70476 5.834893,1.18886 11.80679,1.20677 17.734677,1.27622 7.729923,0.0714 15.458239,0.22895 23.188489,0.29007 6.3085,-0.0935 12.61251,0.15049 18.91862,0.24005 3.59598,0.0511 7.6886,0.008 11.27604,-0.0138 11.53764,0.056 23.072,0.34102 34.60913,0.44379 3.12678,0.10692 6.25433,-0.013 9.37471,-0.2073 1.48454,-0.0925 2.88314,-0.21191 4.32311,-0.57179 1.77348,-0.71491 1.68082,-1.96152 1.71845,-3.63982 0.14898,-1.6528 -0.55225,-3.0017 -1.36646,-4.38174 -1.76732,-2.49478 -3.39419,-5.0867 -5.17725,-7.56968 -0.89938,-1.22081 -1.88296,-2.38302 -3.04351,-3.36552 -3.0515,-2.58334 -9.70603,-5.61793 -11.82535,-6.75625 -0.74908,-0.20572 -1.48838,-0.4511 -2.24722,-0.61717 -0.91452,-0.20014 -1.84375,-0.32609 -2.76714,-0.4802 -1.56652,-0.26146 -4.60594,-0.75295 -6.17761,-0.9289 -1.89989,-0.21271 -3.71515,-0.28678 -5.61849,-0.39037 -2.80227,-0.22714 -5.57736,-0.0479 -8.26044,0.78934 -1.07149,0.32464 -0.56275,0.166 -1.52694,0.47367 0,0 7.30348,4.9531 7.30348,4.9531 v 0 c 0.90704,-0.3207 0.42029,-0.15795 1.46267,-0.48101 2.52603,-0.71522 5.12754,-0.94621 7.75175,-0.79465 4.83734,0.20908 9.79553,0.74409 14.48688,1.99644 0.76637,0.20458 1.50859,0.4908 2.26288,0.73621 -1.82405,-1.13451 -3.66201,-2.24695 -5.47215,-3.40353 -0.46436,-0.2967 0.96701,0.53009 1.43366,0.82318 1.69598,1.06513 3.16165,2.43197 4.35483,4.04 1.80714,2.39847 3.34906,4.9821 5.0496,7.45561 0.84899,1.19925 0.2918,0.3024 0.87245,1.51742 0.37644,0.78774 0.77083,1.45311 0.65776,2.37519 5.3e-4,0.50509 0.10991,1.78421 -0.23406,2.20667 -0.19698,0.24191 -0.59501,0.36396 -0.84945,0.47578 -1.30303,0.34853 -2.59214,0.5181 -3.93673,0.65389 -2.96043,0.29895 -5.93324,0.45876 -8.90916,0.47395 -11.45069,0.18039 -22.89752,-0.0816 -34.34706,-0.2549 -4.05473,-0.0101 -7.3355,0.003 -11.37641,-0.0879 -6.388,-0.14309 -12.77256,-0.44723 -19.16445,-0.40169 -7.75154,-0.0988 -15.501937,-0.27289 -23.253829,-0.34515 -6.045996,-0.1447 -12.120877,-0.32261 -18.044282,-1.67444 -3.12003,-0.60833 -6.242182,-1.19888 -9.37773,-1.72403 -4.024016,-0.74387 -8.00809,-1.70254 -11.986805,-2.65448 -5.00317,-1.37697 -9.947637,-2.93045 -14.840307,-4.66225 -1.856917,-0.59965 -3.716287,-1.20002 -5.526625,-1.93241 -3.054944,-1.23595 -8.749704,-4.63481 4.330984,2.85948 z" />
    <path
       style="fill:#000000;fill-opacity:1;stroke-width:0.264583"
       id="path4"
       d="m 35.657488,222.97326 c 1.353963,1.92059 3.065955,3.53117 4.735698,5.16851 2.422443,2.23516 5.011083,4.27432 7.558217,6.36281 3.712281,2.67996 7.835677,4.84557 11.799265,7.06926 0.651809,0.36568 3.211396,1.5301 3.857175,1.76911 0.813853,0.30122 1.654686,0.52381 2.482027,0.78572 6.079758,1.61828 12.194802,3.12053 18.342211,4.46111 5.56592,1.1402 11.216341,1.75123 16.878669,2.13702 5.22131,0.53164 10.45842,0.87224 15.68961,1.28636 2.10419,0.1253 4.23321,0.28735 6.34344,0.18787 2.04527,-0.0964 4.10119,-0.44126 6.13199,-0.68934 3.39362,-0.3736 6.78065,-0.80863 10.16231,-1.27784 2.0795,-0.31093 4.15395,-0.60611 6.12352,-1.38087 0.98931,-0.38916 2.04072,-0.94519 2.98733,-1.42087 2.6203,-1.25453 4.95984,-3.00778 7.56433,-4.2927 0.51468,-0.34448 1.13224,-0.47133 1.67255,-0.75936 0.23305,-0.12424 1.95855,-1.24567 2.11536,-1.34318 2.73244,-1.69905 -0.29863,0.25157 2.39941,-1.50179 1.17569,-0.90387 2.53348,-1.61988 3.62564,-2.63377 0.61819,-0.57389 0.77744,-0.86478 1.26727,-1.54316 1.15677,-1.81384 2.09566,-3.73886 2.80788,-5.76616 0.42994,-1.56272 0.87773,-3.16834 0.91012,-4.80195 0.0207,-1.0447 -0.0844,-1.41312 -0.24639,-2.44991 -1.06637,-3.09641 -3.06594,-5.77836 -5.20327,-8.2191 -1.56263,-1.54469 -3.27568,-2.98635 -5.17794,-4.10208 -3.98604,-2.33795 -8.02045,-4.91953 -12.35548,-6.67636 -0.9783,-0.39647 -1.98332,-0.7235 -2.97498,-1.08526 -1.00886,-0.31176 -2.01782,-0.62324 -3.0266,-0.93528 -2.62505,-0.81199 -3.6628,-1.18181 -6.36972,-1.82323 -3.47631,-0.82374 -6.9787,-1.31797 -10.51904,-1.75737 -3.44161,-0.46223 -6.90002,-0.77379 -10.3599,-1.05827 -1.73342,-0.14253 -4.65891,-0.39314 -6.42363,-0.44255 -0.99563,-0.0279 -1.99203,0.005 -2.98804,0.007 -3.37726,0.14599 -6.771091,0.13272 -10.140017,0.44486 -2.087287,0.1934 -2.782583,0.34351 -4.874421,0.68212 -4.841539,0.63938 -9.455947,2.35501 -14.049595,3.94364 -2.930072,1.02024 -5.843262,2.08302 -8.791006,3.05059 -1.224425,0.47578 -2.524154,0.94618 -3.587123,1.7424 -0.624567,0.46784 -1.202028,0.99561 -1.811906,1.48245 -0.339683,0.24236 -0.669613,0.49901 -1.019045,0.72709 -0.367708,0.24001 -0.770295,0.42507 -1.130618,0.67603 -1.680445,1.1704 -3.173235,2.60719 -4.825262,3.8203 -1.621229,0.97605 -3.122273,2.13407 -4.573605,3.34433 -1.207241,0.89097 -2.282392,1.97438 -3.34477,3.03549 -0.737201,0.71219 -1.44653,1.45123 -2.165083,2.18161 -0.115422,0.11732 -0.974553,0.93738 -1.09175,1.11345 -0.173623,0.26083 -0.277268,0.56199 -0.415901,0.84299 -0.595953,1.47885 -0.758066,3.06616 -0.828326,4.64433 -0.02798,1.29413 -0.01498,2.58862 -0.01603,3.88295 -0.0099,0.60808 -0.0079,1.21411 0.0526,1.81948 0,0 8.050778,3.85484 8.050778,3.85484 v 0 c -0.243107,-0.53292 -0.216363,-1.08192 -0.209351,-1.65955 -0.02027,-1.28732 -0.04207,-2.57493 -0.02469,-3.8624 0.03435,-1.4618 0.08984,-2.94438 0.616315,-4.32807 0.795907,-1.55702 2.300346,-2.65079 3.493339,-3.89469 1.100664,-1.01029 2.181757,-2.04956 3.366183,-2.96238 1.398233,-1.21985 2.884638,-2.32943 4.40437,-3.39311 1.178634,-0.92745 2.298568,-1.93618 3.496482,-2.83792 1.677929,-1.26308 0.827905,-0.54022 2.469428,-1.62066 0.360002,-0.23695 0.701836,-0.50042 1.052756,-0.75063 0.340436,-0.26032 1.43017,-1.10441 1.822352,-1.36522 1.048594,-0.69735 2.252054,-1.15905 3.416982,-1.61503 2.888361,-1.01346 5.734667,-2.1386 8.610412,-3.18706 4.511718,-1.64284 9.076066,-3.30366 13.871578,-3.87194 4.921774,-0.6992 9.883024,-0.97816 14.851944,-1.08872 6.55629,0.0221 13.09081,0.68647 19.5933,1.49109 2.99488,0.39507 4.02351,0.47975 6.99186,1.07638 4.38442,0.88126 8.64125,2.24516 12.88155,3.64632 0.98667,0.38301 1.98761,0.73112 2.96001,1.14904 2.0681,0.88885 7.88003,4.00884 -1.89836,-1.5002 -0.69213,-0.38994 1.34343,0.84933 1.99454,1.30447 0.57467,0.40171 1.13736,0.82166 1.6808,1.2647 0.49697,0.40515 0.95858,0.85185 1.43786,1.27778 2.17845,2.35986 3.93051,4.78277 5.26966,7.71649 0.13687,0.73358 0.31386,1.50652 0.32978,2.25862 0.033,1.55857 -0.3959,3.10561 -0.79977,4.59315 -0.70108,1.94716 -1.61106,3.77751 -2.73383,5.51913 -1.22924,1.67315 -2.94899,2.77643 -4.62612,3.96534 -2.00483,1.28861 -4.06327,2.48003 -6.21981,3.49382 -2.49403,1.41448 -4.79808,3.16338 -7.41905,4.35413 -1.09616,0.52058 -1.80922,0.89362 -2.94709,1.30176 -1.94507,0.69767 -3.99008,0.94817 -6.01993,1.26763 -3.35666,0.45726 -6.71477,0.90713 -10.07683,1.32296 -0.61898,0.0762 -3.36134,0.41866 -3.97803,0.47439 -2.7796,0.25119 -5.57094,0.12395 -8.35017,-0.0702 -5.18958,-0.3481 -10.379756,-0.68616 -15.557395,-1.18866 -5.630127,-0.43854 -11.250273,-1.06819 -16.785986,-2.21406 -6.162062,-1.34606 -12.315095,-2.78563 -18.359755,-4.59229 -2.481821,-0.89968 -2.32288,-0.76257 -4.553418,-1.85073 -0.62084,-0.30287 -2.429897,-1.31279 -1.840138,-0.95313 11.106936,6.7735 5.23204,3.01649 2.79523,1.49869 -0.431577,-0.34713 -0.863158,-0.69425 -1.294735,-1.04137 -0.418971,-0.36153 -0.828705,-0.73405 -1.256906,-1.08459 -0.943306,-0.77222 -1.608193,-1.19401 -2.540966,-1.98944 -0.427146,-0.36426 -0.819666,-0.76755 -1.24156,-1.13788 -0.395581,-0.34723 -0.806839,-0.67619 -1.21026,-1.01429 -1.582464,-1.57011 -3.257047,-3.06475 -4.549883,-4.89481 z" />
    <path
       style="fill:#000000;fill-opacity:1;stroke-width:0.264583"
       id="path5"
       d="m 12.275809,236.58874 c 0.607222,1.74295 1.951651,2.93674 3.289088,4.12967 3.431055,2.43668 7.233107,5.89752 11.421288,6.03598 0.624432,0.0206 1.320106,-0.13111 1.931985,-0.23844 1.274751,-0.34427 2.210741,-1.22923 2.763419,-2.40215 0.412893,-0.99129 0.161893,-1.96352 -0.135295,-2.94167 -0.337142,-0.90668 -0.80732,-1.75969 -1.536223,-2.40346 -1.979295,-0.88613 -6.712151,-5.43616 -10.447036,-4.93243 -0.12355,0.0812 -0.654127,0.41658 -0.781165,0.54546 -0.224909,0.22819 -0.439393,0.61765 -0.624524,0.87195 -1.232298,1.69268 0.674546,-1.04524 -0.800099,1.0945 -0.678523,0.96568 -1.221497,2.00215 -1.682819,3.0851 0,0 7.686789,4.28919 7.686789,4.28919 v 0 c 0.379796,-1.04409 0.909187,-2.00075 1.581425,-2.88931 0.920347,-1.20378 -0.02825,0.0199 0.852751,-1.06965 0.272374,-0.33683 0.487068,-0.74172 0.977403,-0.71551 3.334652,0.38711 8.254857,4.40661 -5.020957,-3.57137 0.233521,0.15186 0.48659,0.27564 0.705484,0.44792 0.493095,0.38808 0.701631,0.99214 1.057638,1.48799 0.289316,0.7289 0.636789,1.55012 0.422198,2.33681 -0.391557,0.95059 -1.179201,1.5265 -2.194287,1.70529 -0.696072,0.0715 -1.010279,0.14679 -1.722729,0.0353 -0.339059,-0.0531 -1.284957,-0.43854 -0.999065,-0.2487 2.089021,1.38721 4.313218,2.55954 6.451573,3.86943 0.304157,0.18632 -0.643615,-0.31056 -0.947281,-0.49768 -0.3024,-0.18634 -0.577757,-0.41336 -0.866636,-0.62004 -1.394757,-1.12001 -0.27237,-0.17335 -1.537048,-1.36417 -0.717566,-0.67567 -1.485382,-1.30744 -1.784706,-2.29056 z" />
    <path
       style="fill:#000000;fill-opacity:1;stroke-width:0.264583"
       id="path6"
       d="m 16.98745,215.80727 c 5.451629,3.57008 7.031098,4.70558 12.08418,5.70615 1.254808,0.12751 2.563974,0.512 3.837372,0.41312 0.234627,-0.0182 0.461584,-0.092 0.692374,-0.13803 1.444096,-0.37537 2.23579,-1.48669 2.98282,-2.68813 0.570228,-1.05442 0.808456,-2.15092 0.608968,-3.32923 -0.180406,-1.10794 -0.880811,-1.83726 -1.60728,-2.6239 -3.14298,-3.09112 -7.232954,-5.32389 -11.578232,-5.94858 -1.080655,-0.0171 -2.414725,-0.51938 -3.450818,0.0136 -0.206584,0.10627 -0.377272,0.27119 -0.565909,0.40678 -1.050952,0.77451 -1.841691,1.90573 -2.483381,3.03481 -0.476497,1.04053 -0.598458,2.17391 -0.600869,3.30519 0.108316,0.54711 0.09052,0.6624 0.351899,1.16293 1.548205,2.96479 8.769808,5.80957 9.273311,6.10112 1.614564,0.30674 3.229644,0.33798 4.805388,-0.14521 0.825437,-0.27239 0.437037,-0.13262 1.167316,-0.41337 0,0 -7.360623,-4.94689 -7.360623,-4.94689 v 0 c -0.658278,0.25111 -0.300772,0.12775 -1.076286,0.35898 -1.473382,0.31331 -3.066292,0.25321 -4.440734,-0.40803 2.361803,1.38186 4.724812,2.76166 7.085408,4.14558 0.165666,0.0971 -0.34085,-0.17857 -0.500586,-0.28517 -0.601813,-0.40161 -1.071966,-0.9307 -1.368749,-1.59172 -0.142455,-0.95825 0.0154,-1.96104 0.352151,-2.86575 0.539417,-1.01702 1.220437,-2.02656 2.222955,-2.62982 1.148098,-0.44938 2.419808,-0.0953 3.603545,0.0421 0.670068,0.14039 0.985809,0.18382 1.631226,0.40803 0.247319,0.0859 0.951378,0.43188 0.727469,0.29619 -12.07929,-7.32022 -8.505486,-5.06128 -5.964047,-3.46584 0.241392,0.2647 0.465352,0.54585 0.71928,0.79855 0.432179,0.43009 0.916459,0.74249 1.049653,1.39079 0.311181,1.07304 0.294539,1.71212 -0.242862,2.74654 -0.623546,1.01732 -1.285361,1.87764 -2.551612,2.02204 -1.44863,0.0397 -2.893396,-0.1897 -4.309247,-0.47983 -0.821455,-0.19829 -1.658065,-0.37706 -2.460035,-0.64719 -2.909757,-0.98008 -7.296975,-4.57274 5.661167,3.49985 z" />
    <path
       style="fill:#000000;fill-opacity:1;stroke-width:0.264583"
       id="path7"
       d="m 55.476359,185.80097 c -1.986582,0.0893 -3.810709,-0.83135 -5.652844,-1.4439 -0.405553,-0.13245 -0.821015,-0.23772 -1.216657,-0.39735 -0.748366,-0.30195 -1.449062,-0.71091 -2.179873,-1.05316 -0.860439,-0.40296 -1.735294,-0.75053 -2.582977,-1.17951 -3.015765,-1.90148 -0.356166,-0.2111 6.080271,3.46591 0.240974,0.13766 -0.47298,-0.29052 -0.707075,-0.43958 -0.719823,-0.45837 -1.350291,-0.94164 -1.988278,-1.5088 -1.067178,-1.07082 -2.251691,-2.03105 -3.237161,-3.1808 -0.23704,-0.72025 -0.524806,-0.0177 -0.424818,0.10964 0.110951,0.14124 0.702779,0.001 0.882568,-0.0236 2.848229,-0.70123 5.786215,-0.91218 8.683649,-1.33004 6.227045,-1.09584 12.530786,-1.66217 18.834182,-2.0854 5.281099,-0.34398 10.55266,-0.80694 15.840167,-1.04681 3.85862,-0.12418 7.721798,0.0493 11.581117,0.11844 4.99897,-0.0614 9.99561,-0.18747 14.99035,-0.39859 5.3316,-0.10229 10.64075,-0.6025 15.96425,-0.87968 5.11148,-0.23712 10.20544,-0.7164 15.31873,-0.94434 2.74115,-0.11004 5.48446,-0.12104 8.22732,-0.11753 0.48365,-0.14676 1.20567,0.1469 1.69353,0.0369 0.0959,-0.0216 0.19338,-0.0759 0.25018,-0.15616 2.18243,-3.08298 -5.58408,-4.25763 -7.46381,-5.39985 -1.92036,0.0899 -3.80055,-0.2823 -5.65823,-0.72013 -4.12051,-1.06021 -8.14045,-2.46041 -12.26601,-3.50384 -2.09345,-0.52947 -8.29365,-1.91394 -10.2593,-2.35771 -10.78358,-2.46123 -21.556534,-4.96545 -32.222504,-7.90022 -3.55881,-1.16154 -7.210875,-2.115 -10.701925,-3.48124 -1.282615,-0.50196 -2.211811,-0.97848 -3.438475,-1.57181 -4.14079,-2.41353 1.067724,0.62803 4.652082,2.63906 0.370083,0.20764 -0.723757,-0.44328 -1.083683,-0.66808 -0.74014,-0.46225 -1.451965,-0.93115 -2.132484,-1.47643 -0.260289,-0.0793 -0.311147,-0.37779 -0.505288,-0.52291 -0.01778,-0.0133 -0.0805,0.0219 -0.05967,0.0296 0.203642,0.0753 0.424754,-0.091 0.634894,-0.1456 0.340903,-0.0886 0.68244,-0.17481 1.02366,-0.26222 4.843968,-1.73016 9.952633,-2.25381 15.042382,-2.69129 4.50936,-0.24808 8.989711,-0.89236 13.499211,-1.13598 2.32713,-0.12573 4.43235,-0.10593 6.76274,-0.11634 1.14623,0.01 2.29282,-2e-5 3.43871,0.0299 1.17821,0.0308 2.35461,0.11245 3.53255,0.15224 4.41113,0.14902 8.82704,0.16533 13.24009,0.20487 4.16986,0.0802 8.33733,-0.12568 12.50418,-0.25087 3.45561,-0.16068 6.91733,-0.0398 10.3729,-0.16232 0.94869,-0.0322 1.91408,-0.0897 2.83663,-0.33544 0.49538,-0.13196 0.71238,-0.32027 0.64886,-0.36707 -2.46651,-1.81737 -5.05455,-3.46375 -7.58182,-5.19563 -0.20643,-0.0125 -0.41744,0.007 -0.61929,-0.0376 -0.38897,-0.0867 -0.7578,-0.24788 -1.14162,-0.35514 -1.53923,-0.43013 -3.09114,-0.81384 -4.64173,-1.20102 -2.62065,-0.65437 -5.4985,-1.32775 -8.10868,-1.9471 -9.25662,-1.83135 -18.66311,-2.88352 -28.09045,-3.26257 -6.95331,-0.27958 -10.187412,-0.13598 -17.093338,-0.0297 -9.341871,0.21511 -18.673001,0.7155 -28.006199,1.14902 -0.719053,0.0904 -1.439894,0.16755 -2.157156,0.2712 -1.637352,0.23659 -2.821839,0.48802 -4.467209,0.75181 -2.513922,0.40303 -5.030118,0.67184 -7.564374,0.90463 -4.2897,0.65373 -8.565586,1.39729 -12.884776,1.83151 -2.223982,0.1068 -4.449789,-0.0226 -6.670908,-0.13391 -0.639305,-0.10365 -1.282608,-0.19382 -1.918481,-0.31801 -0.140202,-0.0274 -0.286311,-0.0398 -0.417681,-0.0959 -0.09387,-0.0401 -0.331846,-0.23659 -0.243028,-0.18629 2.494087,1.4125 4.974201,2.84953 7.461303,4.27429 -0.05996,-0.009 -0.143743,0.0214 -0.179885,-0.0272 -0.126196,-0.17004 0.08368,-0.68181 0.107788,-0.75154 0.416105,-1.20354 0.926373,-2.34133 1.481273,-3.4868 2.184111,-4.51127 5.072927,-8.61965 8.252478,-12.4754 3.055157,-3.39856 6.749997,-6.06107 10.059747,-9.18843 1.638871,-1.63469 3.418998,-3.13523 4.870571,-4.94978 0.726951,-0.90874 0.803648,-1.11437 1.377945,-2.08855 0.770274,-1.42379 1.238623,-2.95617 1.084532,-4.57468 -0.207131,-1.69317 -1.101817,-3.169466 -1.84123,-4.673969 0,0 -7.997504,-3.605395 -7.997504,-3.605395 v 0 c 0.855096,1.574689 0.01103,-0.02368 0.835011,1.681377 0.427287,0.884195 0.966087,1.687989 1.063295,2.693824 0.293594,1.447723 -0.02522,2.810173 -0.689182,4.127173 -1.487503,2.69361 -3.703722,4.81625 -5.88038,6.95932 -3.350064,3.10626 -7.055845,5.83273 -10.027986,9.3366 -3.198553,3.91823 -6.09327,8.07655 -8.560684,12.49729 -1.157843,2.07479 -0.480486,0.77829 -1.355114,2.61577 -0.388825,0.81687 -0.868277,1.60675 -0.877553,2.53943 6.537173,3.84312 5.666975,4.6089 10.485127,4.89059 2.203461,0.06 4.416139,0.15843 6.613163,-0.0766 4.228763,-0.58558 8.41153,-1.45293 12.649871,-1.97258 4.768813,-0.45958 9.489655,-1.22073 14.234158,-1.86863 8.905861,-0.8111 17.806886,-1.73349 26.751893,-2.00456 7.082803,-0.14094 9.856953,-0.31807 17.014123,0.0468 9.68454,0.49372 19.3268,1.83848 28.78922,3.94554 5.14798,1.33082 10.28109,2.70679 15.36583,4.26351 -9.12864,-6.50068 -4.09586,-5.04359 -9.9809,-4.62366 -3.43826,0.15338 -6.88265,0.0847 -10.3226,0.19293 -4.07019,0.15948 -8.13703,0.45275 -12.21266,0.423 -3.191,0.0104 -6.38187,0.0144 -9.57248,-0.05 -3.20167,-0.0646 -3.89341,-0.10975 -7.10271,-0.24122 -1.14966,-0.0279 -2.29993,-0.0161 -3.4499,-0.0241 -2.47663,0.0186 -4.35365,7.9e-4 -6.825255,0.14622 -4.503401,0.26501 -8.977283,0.93318 -13.484863,1.15048 -3.199775,0.26883 -6.391833,0.54226 -9.557813,1.09956 -2.085478,0.36709 -2.532809,0.52933 -4.475406,1.00711 -0.515181,0.12671 -1.031729,0.24778 -1.547595,0.37167 -1.306349,0.31917 -3.362529,0.80254 -2.101422,2.52141 1.001371,0.95547 2.163297,1.66664 3.355298,2.3642 8.569634,5.01495 5.789631,3.51522 10.086459,5.7961 4.418113,1.98576 9.090654,3.28215 13.753264,4.56367 10.620483,2.68 21.300753,5.10789 31.951393,7.66326 3.18597,0.75663 7.28573,1.6999 10.47326,2.57027 4.31901,1.17932 8.51457,2.75233 12.84373,3.89445 1.58253,0.36069 1.45125,0.37623 2.89769,0.5596 0.87048,0.11036 1.78835,0.11109 2.64514,0.31777 0.11959,0.0288 0.22942,0.0889 0.34414,0.13336 -2.46203,-1.53194 -5.04437,-2.88563 -7.38609,-4.59583 -0.17357,-0.12676 0.26662,-0.33924 0.37257,-0.52624 0.0604,-0.10668 -0.24308,-0.0452 -0.36561,-0.0405 -0.48698,0.0184 -0.76397,0.0201 -1.27423,0.029 -2.64745,0.0571 -5.29039,0.22802 -7.93412,0.37236 -5.08348,0.29007 -10.15543,0.73617 -15.23978,1.00465 -5.33077,0.30127 -10.65606,0.70428 -15.99479,0.84325 -5.01196,0.19058 -10.02688,0.34003 -15.043197,0.29627 -3.884671,-0.0978 -7.777528,-0.34071 -11.660727,-0.0946 -5.185738,0.35075 -10.352371,0.91717 -15.537579,1.27544 -6.391913,0.43767 -12.7717,1.03531 -19.116093,1.94079 -3.004503,0.31157 -6.01114,0.5821 -8.992759,1.07494 -0.236238,0.011 -0.855337,-0.008 -1.117454,0.14756 -0.531493,0.31611 -0.729785,0.93313 -0.28838,1.38619 0.871677,1.3104 2.175756,2.24164 3.273615,3.35183 0.245594,0.25467 0.934524,0.99066 1.237401,1.2262 0.208206,0.16192 0.448971,0.27712 0.668708,0.423 0.232553,0.1544 0.447201,0.33619 0.687845,0.47764 7.242857,4.25754 5.532054,3.34368 8.996516,5.16737 1.966026,0.87855 3.907157,1.83815 5.964063,2.48767 1.962335,0.67982 3.938799,1.48673 6.060143,1.25185 z" />
    <path
       style="fill:#000000;fill-opacity:1;stroke-width:0.264583"
       id="path8"
       d="m 37.288094,11.301424 c 0.159959,2.908904 0.121867,5.823951 0.103447,8.735799 -0.0066,2.688077 -0.02753,5.376053 -0.01818,8.064157 0.04025,2.961245 -0.117129,5.919144 -0.200967,8.878022 -0.253214,4.44079 0.331663,8.855056 0.889632,13.248711 0.404921,3.082234 0.980305,6.139871 1.2544,9.237993 0.230302,2.598097 0.184944,5.206259 0.177557,7.810984 -0.06029,1.999758 0.05776,3.993528 0.18968,5.987325 0.06032,1.151279 0.45322,2.225165 1.01001,3.222615 0.238302,0.383807 0.395038,0.812556 0.684749,1.164939 1.977036,2.404734 8.748445,5.416873 8.898292,5.504103 0.212974,0.03371 0.423545,0.09073 0.638916,0.101126 0.287372,0.01386 0.575058,-0.03704 0.862639,-0.02865 0.357315,0.01042 0.711851,0.07046 1.069018,0.08504 1.661707,0.06786 3.337488,0.01143 4.999616,7.94e-4 3.774602,0.01106 7.540652,-0.350671 11.28753,-0.777031 2.79785,-0.353576 5.617292,-0.428945 8.432998,-0.500046 4.405945,-0.07764 8.812726,-0.08988 13.219242,-0.0819 6.033731,-0.118023 12.059227,0.04306 18.081627,0.410162 7.37253,0.458367 14.74123,0.997667 22.10168,1.622648 6.9128,0.577262 13.8124,1.288989 20.72814,1.833991 7.95808,0.786016 15.9273,1.562669 23.85104,2.65339 3.18059,0.366048 6.31332,1.03111 9.47856,1.493146 0.0848,-0.139395 1.49593,0.290018 1.68158,0.23182 0.61978,-0.194286 0.59022,-1.040079 0.59901,-1.514572 -0.25783,-2.023862 -0.54247,-4.054687 -0.48255,-6.101332 0.0245,-0.836649 0.10576,-1.670671 0.15863,-2.506009 0.87994,-8.476339 2.94849,-16.77349 4.68089,-25.10383 1.50357,-6.903686 3.2519,-13.746535 4.63574,-20.676084 0.64539,-2.603936 0.8654,-5.230839 0.80552,-7.900372 -0.30962,-4.40562 -3.22808,-4.285149 -8.49045,-6.734943 -0.25079,-0.11675 -0.4363,0.340212 -0.65445,0.510318 -0.88182,1.046558 -1.62607,2.189456 -2.36413,3.338128 0,0 7.43249,4.352724 7.43249,4.352724 v 0 c 0.68695,-1.002872 1.34961,-2.040887 2.32211,-2.799858 3.16197,0.452943 0.35111,0.09368 -7.03683,-4.295804 -0.10803,-0.06419 0.23949,0.08825 0.33891,0.165094 0.46507,0.359464 0.53092,0.982489 0.6172,1.514469 0.16896,2.653569 0.1168,5.29684 -0.35566,7.924515 -1.06167,7.03139 -2.70195,13.950773 -4.15107,20.90882 -0.83292,4.15422 -0.99295,5.074007 -1.92706,9.236715 -1.16998,5.213768 -2.50427,10.392698 -3.27107,15.688799 -0.11032,0.830207 -0.24757,1.657281 -0.33095,2.490626 -0.2005,2.003976 -0.054,4.014838 0.14853,6.011651 0.0261,0.121743 0.007,0.262874 0.0783,0.365231 0.0273,0.03948 0.0907,-0.04823 0.11117,-0.09166 0.11202,-0.237422 -1.44014,-0.175356 -1.56872,-0.267833 -3.01935,-0.404968 -6.02866,-0.883676 -9.06383,-1.166762 -7.874,-0.868778 -15.7628,-1.608577 -23.63893,-2.457408 -6.97761,-0.64503 -13.94167,-1.436301 -20.92828,-1.978213 -7.32284,-0.577775 -14.66167,-0.93318 -21.98433,-1.519009 -6.125713,-0.421558 -12.254977,-0.664711 -18.396744,-0.575006 -4.457724,0.0049 -8.915429,-0.0295 -13.373111,-0.01024 -2.851277,0.03238 -5.705094,0.121672 -8.530489,0.541288 -3.684035,0.493921 -7.402264,0.85462 -11.123324,0.75969 -1.711428,-0.02773 -3.420555,-0.04451 -5.127353,-0.186404 -0.467889,-0.0389 -1.42064,-0.116975 -1.924322,-0.270584 -0.190447,-0.05808 -0.361077,-0.167924 -0.541615,-0.251884 16.64082,9.791078 7.598986,4.988415 5.874715,3.236516 -0.234627,-0.238387 -0.297211,-0.439365 -0.442031,-0.740672 -0.547899,-0.910003 -1.099421,-1.820029 -1.249447,-2.898542 -0.179885,-1.986039 -0.391359,-3.969859 -0.300358,-5.967952 -0.01577,-2.629064 -0.05975,-5.2602 -0.160718,-7.886788 -0.06936,-0.786325 -0.144074,-1.753968 -0.257001,-2.532835 -0.334605,-2.307796 -0.952264,-4.567944 -1.271577,-6.878777 -0.560599,-4.323826 -1.049615,-8.669936 -0.780997,-13.038521 0.131694,-2.951888 0.370417,-5.900756 0.311161,-8.856851 0.0094,-2.694281 -0.01169,-5.388435 -0.01818,-8.08269 -0.01807,-2.876643 -0.05934,-5.756845 0.103444,-8.630382 z" />
    <path
       style="fill:#000000;fill-opacity:1;stroke-width:0.264583"
       id="path9"
       d="m 111.13906,80.713351 c 0.49911,-3.278041 1.19462,-6.52563 1.84544,-9.776864 0.91415,-4.116531 1.04258,-8.338071 1.28313,-12.531535 0.19398,-3.473667 0.49297,-6.939806 0.7343,-10.410203 0.16242,-2.323126 0.1423,-4.658891 0.32838,-6.979851 0.0907,-1.441791 0.37465,-2.859159 0.58896,-4.285326 0.14576,-1.473632 0.24884,-2.94998 0.39474,-4.424265 0.16194,-1.387737 0.14552,-2.790854 0.46613,-4.155786 0.35294,-1.457458 0.37948,-2.963152 0.68675,-4.427645 0,0 -7.80543,-4.158295 -7.80543,-4.158295 v 0 c -0.23609,1.461912 -0.31468,2.946825 -0.67299,4.3874 -0.3288,1.407723 -0.36133,2.848979 -0.46924,4.285619 -0.14358,1.45923 -0.32224,2.912052 -0.4126,4.37601 -0.18347,1.453706 -0.50192,2.886398 -0.58372,4.352353 -0.15574,2.352244 0.0228,4.719643 -0.17443,7.072461 -0.17472,3.495739 -0.48458,6.982886 -0.59982,10.481847 -0.23981,4.158128 -0.37424,8.335431 -1.22984,12.427879 -0.62745,3.214933 -1.36399,6.396262 -2.20348,9.561859 z" />
    <path
       style="fill:#000000;fill-opacity:1;stroke-width:0.264583"
       id="path10"
       d="m 24.172133,213.13286 c -1.179276,-0.36846 -2.164013,-0.0593 -2.889834,0.92506 -1.35473,3.44597 4.396891,3.78286 7.622768,5.65899 0.21634,0.12582 1.858881,-0.0824 2.108547,-0.0973 0.882629,-0.0858 1.748189,-0.22434 2.610046,-0.42807 0,0 -7.232959,-5.02228 -7.232959,-5.02228 v 0 c -0.822255,0.16135 -1.648018,0.29278 -2.489005,0.30403 -0.530649,-0.0113 -1.028546,0.0234 -1.541332,-0.1359 -0.144886,-0.045 -0.530739,-0.29361 -0.402348,-0.21278 2.409646,1.517 4.855769,2.9763 7.24715,4.52193 0.05628,0.0364 -0.132091,0.0455 -0.198123,0.0341 -0.03066,-0.005 -0.03483,-0.0516 -0.05225,-0.0773 0.527666,-0.71291 1.599895,-0.21489 2.274538,-0.0367 z" />
    <path
       style="fill:#000000;fill-opacity:1;stroke-width:0.264583"
       id="path11"
       d="m 30.278623,216.54603 c 1.388766,0.1311 2.754029,0.39985 4.143457,0.53843 0.431715,0.01 2.226497,0.25455 2.524312,-0.20861 0.11084,-0.17238 0.174191,-0.37102 0.261287,-0.55653 -0.0098,-0.20894 0.0031,-0.36493 -0.09318,-0.56182 -0.08594,-0.17566 -0.372639,-0.60735 -0.536945,-0.70452 -2.623071,-1.55118 -5.282359,-3.04029 -7.923535,-4.56044 0,0 6.973138,5.56208 6.973138,5.56208 v 0 c -2.449957,-1.42781 -4.899914,-2.85563 -7.349871,-4.28344 0.175538,0.0621 0.344382,0.0973 0.480891,0.23607 0.05968,0.0607 0.07263,0.16022 0.137864,0.21486 0.07511,0.0629 0.202975,0.0234 0.28067,0.0873 0.09218,-0.12325 0.192519,-0.2408 0.27654,-0.36975 0.009,-0.0138 0.0127,-0.0475 -0.0036,-0.0491 -0.67646,-0.0649 -1.407845,0.16921 -2.083221,-0.0566 -1.410662,-0.18323 -2.811112,-0.43473 -4.220585,-0.62655 z" />
    <path
       style="fill:#000000;fill-opacity:1;stroke-width:0.264583"
       id="path12"
       d="m 31.916235,216.13127 c -1.878788,-3.01084 -6.117348,-8.30463 -9.658509,-6.43317 -0.413949,0.50338 -0.247087,0.23832 -0.513064,0.7872 0,0 7.78583,4.38479 7.78583,4.38479 v 0 c 0.02188,-0.10815 0.01794,-0.0929 -0.0053,0.047 0.977869,2.84885 0.09404,0.15608 -7.262713,-4.15839 -0.132957,-0.078 0.267073,0.15723 0.383869,0.25781 0.477964,0.41161 0.835417,0.94968 1.14398,1.49255 z" />
    <path
       style="fill:#000000;fill-opacity:1;stroke-width:0.264583"
       id="path13"
       d="m 29.779359,217.16353 c 1.035632,0.27061 2.086385,0.47435 3.139681,0.66146 0,0 -7.012688,-5.29959 -7.012688,-5.29959 v 0 c -1.056525,-0.21539 -2.125548,-0.42837 -3.11147,-0.88181 z" />
    <path
       style="fill:#b9e565;fill-opacity:1;fill-rule:nonzero;stroke-width:0.264583"
       d="m 166.52794,180.35518 c 1.37145,0.25768 2.10955,-0.45292 3.30651,-0.90178 0.66339,-0.24877 1.44632,-0.0375 2.10414,-0.30059 2.75297,-1.10119 -0.13453,-0.16606 0.60119,-0.90178 0.22405,-0.22404 0.67772,-0.0765 0.90177,-0.30059 0.74521,-0.7452 0.42738,-0.79136 0.90178,-1.50296 0.21497,-0.32245 0.87148,-0.54059 1.20237,-1.20237 0.33593,-0.67186 0.60118,-4.95491 0.60118,-5.41065 0,-0.71731 0.33512,-2.63628 0,-3.30651 -0.23836,-0.47672 -0.30624,-1.2052 -0.90178,-1.50296 -0.0896,-0.0448 -0.22974,0.0709 -0.30059,0 -0.21255,-0.21255 0.0951,-0.61661 0,-0.90178 -0.13923,-0.4177 -1.20175,-0.60026 -1.20236,-0.60118 -0.86309,-1.29464 0.34641,-0.56682 -0.90178,-1.50296 -0.0964,-0.0723 -1.18497,-0.5664 -1.20237,-0.60119 -0.28675,-0.57351 0.34447,-0.57924 -0.30059,-0.90177 -0.0896,-0.0448 -0.22974,0.0709 -0.30059,0 -0.0709,-0.0708 0.0709,-0.22974 0,-0.30059 -0.0834,-0.0834 -1.30677,-0.16981 -1.50296,-0.3006 -0.35371,-0.2358 -0.52156,-0.71166 -0.90178,-0.90177 -0.26885,-0.13443 -0.60702,0.0589 -0.90177,0 -0.4394,-0.0879 -0.77727,-0.45948 -1.20237,-0.60118 -0.55863,-0.18622 -1.51008,0 -2.10415,0 -0.3987,0 -2.41969,-0.28564 -2.70532,0 -0.1503,0.15029 -0.1503,0.45088 -0.30059,0.60118 -0.21255,0.21255 -0.65167,-0.16674 -0.90178,0 -0.18642,0.12428 -0.11417,0.4769 -0.30059,0.60118 -0.30965,0.20644 -1.16388,0.13105 -1.50296,0.30059 -0.0684,0.0342 -0.28546,0.79654 -0.60118,0.90178 -0.71433,0.23811 -0.54595,-0.35583 -1.20237,0.30059 -0.0708,0.0708 0.0709,0.22974 0,0.30059 -0.15843,0.15843 -0.41477,0.17632 -0.60119,0.3006 -0.40379,0.26919 -3.47981,3.6531 -3.6071,3.90769 -0.0448,0.0896 0,0.2004 0,0.30059 -0.1002,0.30059 -0.13757,0.63008 -0.30059,0.90178 -0.14581,0.24301 -0.47445,0.3477 -0.60119,0.60118 -0.0876,0.1752 -0.45183,1.9567 -0.60118,2.40474 -0.36722,1.10165 0,3.01469 0,4.20829 0,0.11612 -0.017,4.49185 0,4.50887 0.0708,0.0709 0.22974,-0.0709 0.30059,0 0.1506,0.1506 0.10353,1.00531 0.30059,1.20237 0.0708,0.0709 0.22974,-0.0709 0.30059,0 0.0708,0.0709 -0.0709,0.22975 0,0.3006 0.0708,0.0709 0.22975,-0.0709 0.3006,0 0.0708,0.0709 -0.0709,0.22974 0,0.30059 0.0708,0.0709 0.21097,-0.0448 0.30059,0 1.25099,0.62549 -0.32134,-0.0207 0.30059,0.60118 0.12596,0.12596 0.7196,0.2095 0.90178,0.30059 0.36071,0.18036 0.54106,0.72142 0.90177,0.90178 0.53272,0.26636 1.68712,0.18416 2.10415,0.60118 0.37309,0.3731 0.0778,0.97957 0.30059,1.20237 0.18442,0.18442 2.31079,0.20664 2.40473,0.30059 0.2048,0.2048 0.24019,1.14196 0.3006,1.20237 0.15059,0.1506 1.0053,0.10353 1.20236,0.30059 0.12888,0.12888 -0.0603,0.96205 -0.30059,1.20237 -0.1417,0.1417 -0.45948,-0.1417 -0.60118,0 -0.0708,0.0709 0.0896,0.25578 0,0.30059 -0.17924,0.0896 -0.45949,-0.1417 -0.60119,0 -0.22404,0.22405 -0.12483,0.63814 -0.30059,0.90178 -0.11116,0.16674 -0.42194,-0.0896 -0.60118,0 -0.50775,0.25387 -0.19604,0.79722 -0.60118,1.20236 -0.0652,0.0652 -0.57189,0.24199 -0.60119,0.3006 -0.0725,0.14498 -0.12685,2.27788 0,2.40473 0.62194,0.62194 -0.0243,-0.9504 0.60119,0.30059 0.0448,0.0896 -0.0708,0.22975 0,0.3006 0.0709,0.0708 0.25578,-0.0896 0.30059,0 0.28675,0.57351 -0.34447,0.57924 0.30059,0.90177 0.61016,0.30508 1.66102,0.15496 2.40473,0.60119 0.30979,0.18587 0.64633,0.34572 0.90178,0.60118 0.15842,0.15842 0.1002,0.50099 0.30059,0.60118 0.57073,0.28537 2.47068,-0.0337 3.30651,0.3006 0.54246,0.21698 0.96596,0.67163 1.50296,0.90177 0.78716,0.33736 1.91711,0.0379 2.70533,0.30059 0.13443,0.0448 0.17385,0.23722 0.30059,0.30059 0.0896,0.0448 0.22974,-0.0709 0.30059,0 0.0709,0.0708 -0.10019,0.3006 0,0.3006 0.201,0 -0.58101,-3.28634 -0.90177,-3.60711 -0.0709,-0.0709 -0.22974,0.0708 -0.30059,0 -0.27478,-0.27477 -0.51285,-2.13971 -0.60119,-2.40473 -0.1417,-0.4251 -0.4925,-0.76765 -0.60118,-1.20237 -0.0486,-0.19441 0.0896,-0.42195 0,-0.60118 -0.0448,-0.0896 -0.22974,0.0708 -0.30059,0 -0.16832,-0.16832 0.0653,-1.30716 0,-1.50296 -0.0448,-0.13443 -0.23722,-0.17385 -0.30059,-0.3006 -0.24262,-0.48522 0,-3.35424 0,-3.90769"
       id="path51" />
    <path
       style="fill:#e56565;fill-opacity:1;stroke-width:0.264583"
       d="m 154.31174,195.75911 c 32.30769,12.32793 43.14777,2.33805 43.14777,2.33805 0,0 -23.59311,-23.80566 -37.83401,-19.55465"
       id="path40" />
    <path
       style="fill:#65b5e5;fill-opacity:1;stroke-width:0.264583"
       d="m 166.63967,162.81376 c -0.4251,28.48178 9.35223,31.88259 9.35223,31.88259 0,0 8.92713,4.67612 8.92713,-2.5506 0,-7.22672 19.7672,-19.12956 10.84008,-22.74292"
       id="path41" />
    <path
       style="fill:#65e57b;fill-opacity:1;stroke-width:0.264583"
       d="m 178.75506,181.51822 c 12.75303,30.18218 25.50607,16.36639 25.50607,16.36639 0,0 3.40081,-14.45344 -2.55061,-14.45344 -5.95141,0 0.42511,-4.67611 -10.62753,-5.73887 -11.05263,-1.06275 -12.32793,3.82592 -12.32793,3.82592 z"
       id="path42" />
  </g>
</svg>
